<svg width="41" height="33" viewBox="0 0 41 33" fill="none" xmlns="http://www.w3.org/2000/svg">
<path fill-rule="evenodd" clip-rule="evenodd" d="M16.8421 27.2438C17.3777 27.6599 17.9792 28.018 18.6311 28.3088C19.7881 28.8293 21.2121 28.8293 22.3701 28.3088C23.0216 28.0178 23.6227 27.6598 24.1581 27.2438L37.0921 17.1612C37.9361 16.5069 38.6072 15.7235 39.0655 14.8575C39.5238 13.9914 39.76 13.0604 39.76 12.1198C39.76 11.1792 39.5238 10.2482 39.0655 9.38218C38.6072 8.51613 37.9361 7.7327 37.0921 7.07847C33.5351 4.30718 27.7151 4.30718 24.1581 7.07847L20.5001 9.93064L16.8421 7.07847C13.2851 4.30718 7.46511 4.30718 3.90811 7.07847C3.06413 7.7327 2.39304 8.51613 1.93472 9.38218C1.47641 10.2482 1.24023 11.1792 1.24023 12.1198C1.24023 13.0604 1.47641 13.9914 1.93472 14.8575C2.39304 15.7235 3.06413 16.5069 3.90811 17.1612L16.8421 27.2438ZM17.3871 26.9972L23.5151 22.2201L17.3871 26.9972ZM14.3571 24.6351L20.4851 19.858L14.3571 24.6351ZM11.3271 22.273L17.4551 17.4959L11.3271 22.273Z" fill="white"/>
<path d="M11.3271 22.273L17.4551 17.4959M16.8421 27.2438C17.3777 27.6599 17.9792 28.018 18.6311 28.3088C19.7881 28.8293 21.2121 28.8293 22.3701 28.3088C23.0216 28.0178 23.6227 27.6598 24.1581 27.2438L37.0921 17.1612C37.9361 16.5069 38.6072 15.7235 39.0655 14.8575C39.5238 13.9914 39.76 13.0604 39.76 12.1198C39.76 11.1792 39.5238 10.2482 39.0655 9.38218C38.6072 8.51613 37.9361 7.7327 37.0921 7.07847C33.5351 4.30718 27.7151 4.30718 24.1581 7.07847L20.5001 9.93064L16.8421 7.07847C13.2851 4.30718 7.46511 4.30718 3.90811 7.07847C3.06413 7.7327 2.39304 8.51613 1.93472 9.38218C1.47641 10.2482 1.24023 11.1792 1.24023 12.1198C1.24023 13.0604 1.47641 13.9914 1.93472 14.8575C2.39304 15.7235 3.06413 16.5069 3.90811 17.1612L16.8421 27.2438ZM17.3871 26.9972L23.5151 22.2201L17.3871 26.9972ZM14.3571 24.6351L20.4851 19.858L14.3571 24.6351Z" stroke="#444444" stroke-width="1.5" stroke-linecap="round" stroke-linejoin="round"/>
<path fill-rule="evenodd" clip-rule="evenodd" d="M7.375 19.9325L17.109 12.549L7.375 19.9325Z" fill="black"/>
<path d="M7.375 19.9325L17.109 12.549" stroke="#444444" stroke-width="1.5" stroke-linecap="square" stroke-linejoin="round"/>
<path fill-rule="evenodd" clip-rule="evenodd" d="M25.3331 13.6974L16.5311 6.83517L16.5191 6.85279C12.9421 4.3177 7.36206 4.38816 3.91006 7.07939C3.06608 7.73363 2.39499 8.51705 1.93668 9.3831C1.47836 10.2492 1.24219 11.1801 1.24219 12.1207C1.24219 13.0613 1.47836 13.9923 1.93668 14.8584C2.39499 15.7244 3.06608 16.5079 3.91006 17.1621L7.45706 19.935L17.1101 12.5499L22.0881 16.2277C22.5241 16.5638 23.1058 16.7516 23.7111 16.7516C24.3163 16.7516 24.898 16.5638 25.3341 16.2277C25.5466 16.0638 25.7157 15.8673 25.8312 15.6499C25.9467 15.4326 26.0063 15.1988 26.0063 14.9625C26.0063 14.7263 25.9467 14.4925 25.8312 14.2751C25.7157 14.0577 25.5466 13.8612 25.3341 13.6974" fill="black"/>
<path fill-rule="evenodd" clip-rule="evenodd" d="M25.3331 13.6974L16.5311 6.83517L16.5191 6.85279C12.9421 4.3177 7.36206 4.38816 3.91006 7.07939C3.06608 7.73363 2.39499 8.51705 1.93668 9.3831C1.47836 10.2492 1.24219 11.1801 1.24219 12.1207C1.24219 13.0613 1.47836 13.9923 1.93668 14.8584C2.39499 15.7244 3.06608 16.5079 3.91006 17.1621L7.45706 19.935L17.1101 12.5499L22.0881 16.2277C22.5241 16.5638 23.1058 16.7516 23.7111 16.7516C24.3163 16.7516 24.898 16.5638 25.3341 16.2277C25.5466 16.0638 25.7157 15.8673 25.8312 15.6499C25.9467 15.4326 26.0063 15.1988 26.0063 14.9625C26.0063 14.7263 25.9467 14.4925 25.8312 14.2751C25.7157 14.0577 25.5466 13.8612 25.3341 13.6974H25.3331Z" fill="#32B3A3" stroke="#444444" stroke-width="1.5" stroke-linecap="round"/>
<path fill-rule="evenodd" clip-rule="evenodd" d="M10.2993 13.1135C13.5943 15.3363 17.0853 12.8029 17.0853 12.8029L10.2993 13.1135Z" fill="#32B3A3"/>
<path d="M10.2993 13.1135C13.5943 15.3363 17.0853 12.8029 17.0853 12.8029" stroke="#444444" stroke-width="1.5" stroke-linecap="round" stroke-linejoin="round"/>
</svg>
