<svg width="26" height="43" viewBox="0 0 26 43" fill="none" xmlns="http://www.w3.org/2000/svg">
<path d="M23.5004 21.7865L24.0626 23.6472C24.2738 24.3551 24.4398 24.9321 24.5881 25.4896C25.1716 27.6751 25.4705 29.4934 25.4978 31.4092V41.6537C25.4978 42.0782 25.1491 42.4212 24.7173 42.4212H1.22731C1.12395 42.4204 1.02174 42.4 0.926558 42.361C0.831371 42.322 0.745066 42.2652 0.67258 42.194C0.600094 42.1227 0.54285 42.0383 0.504122 41.9456C0.465395 41.8529 0.445944 41.7537 0.446882 41.6537V31.3713C0.577349 28.7718 2.13821 26.8307 5.00493 24.8208C5.47369 24.4932 5.9494 24.175 6.43177 23.8664L6.69982 23.692C6.91331 23.5532 7.06394 23.4534 7.20746 23.3581C7.95112 22.8649 8.39352 22.5276 8.66869 22.2362C9.59619 21.2542 10.2462 19.8569 10.6459 18.1476C11.0847 16.2742 11.1772 14.2769 11.0752 12.524C11.0622 12.3049 11.0491 12.1511 11.0444 12.0949C10.7526 9.86248 9.18344 8.36194 6.66661 7.44189C5.64659 7.06905 4.54593 6.8224 3.44288 6.67785C2.96157 6.6156 2.47753 6.57502 1.99233 6.55625C1.81755 6.55306 1.64891 6.49338 1.51328 6.38673C1.37764 6.28007 1.28282 6.13257 1.24392 5.96774L0.0222705 0.944146C-0.00577666 0.832333 -0.00735293 0.715836 0.0176594 0.603351C0.0426717 0.490866 0.0936266 0.385297 0.166721 0.294524C0.239816 0.203751 0.333162 0.130118 0.439794 0.0791193C0.546426 0.0281211 0.663589 0.00107511 0.782539 0H20.3645L20.4617 0.005736C22.9394 0.310891 25.4978 2.27834 25.4978 4.45687V7.37879C25.4978 7.80211 25.1491 8.14512 24.7173 8.14512H21.6051V11.9802C21.7712 15.2853 22.3167 17.8539 23.5004 21.7876V21.7865ZM23.9369 31.4207C23.9108 29.654 23.6309 27.9527 23.077 25.8785C22.9148 25.2758 22.7436 24.6754 22.5635 24.0774C22.4531 23.7058 22.0594 22.4094 22.0024 22.2201C20.7844 18.1717 20.2162 15.4952 20.0454 12.0353L20.0442 7.37765C20.0442 6.95318 20.393 6.61132 20.8247 6.61132H23.9369V4.45687C23.9369 3.20642 22.0843 1.77128 20.3135 1.53151H1.77172L2.62687 5.05342C2.94118 5.07636 3.28395 5.11078 3.64807 5.15896C4.85786 5.31613 6.07121 5.58801 7.21102 6.00445C10.2189 7.10461 12.2162 9.0147 12.5958 11.9206C12.6052 12.0181 12.6195 12.1936 12.6337 12.4357C12.744 14.3205 12.6444 16.4531 12.1676 18.4906C11.7121 20.4408 10.9519 22.0733 9.81443 23.2778C9.43489 23.6817 8.92014 24.0706 8.08277 24.6281C7.93452 24.7268 7.77914 24.8277 7.56328 24.9688L7.29404 25.1443L7.02124 25.3222C6.57766 25.6124 6.24081 25.8384 5.91227 26.0678C3.39781 27.8322 2.10856 29.436 2.00774 31.4092V40.8874H23.9369V31.4207Z" fill="#56509F"/>
<path d="M4.7865 12.7947C4.71403 12.8654 4.62771 12.9213 4.5326 12.9592C4.43749 12.9971 4.3355 13.0162 4.23264 13.0155C4.12977 13.0147 4.02809 12.9941 3.93358 12.9548C3.83907 12.9155 3.75363 12.8584 3.68227 12.7867C3.53696 12.6408 3.45648 12.4456 3.45803 12.243C3.45958 12.0404 3.54305 11.8464 3.69057 11.7026L8.22134 7.3157C8.29381 7.24507 8.38013 7.18917 8.47524 7.15126C8.57035 7.11335 8.67234 7.09421 8.7752 7.09496C8.87807 7.09571 8.97975 7.11633 9.07426 7.15562C9.16877 7.1949 9.25421 7.25206 9.32557 7.32373C9.47103 7.46952 9.55173 7.66458 9.5504 7.86718C9.54907 8.06979 9.46582 8.26384 9.31845 8.40783L4.7865 12.7947ZM12.1472 12.9622C12.044 12.9615 11.9418 12.9411 11.8467 12.9021C11.7516 12.8632 11.6654 12.8066 11.5929 12.7354C11.5204 12.6642 11.4632 12.58 11.4244 12.4874C11.3856 12.3948 11.366 12.2958 11.3668 12.1959C11.3668 11.7714 11.7167 11.4284 12.1472 11.4284H20.5469C20.9787 11.4284 21.3274 11.7726 21.3274 12.1959C21.3274 12.6192 20.9787 12.9622 20.5469 12.9622H12.1472Z" fill="#56509F"/>
<path fill-rule="evenodd" clip-rule="evenodd" d="M24.6666 31.431C24.6666 31.431 22.1284 27.69 13.4096 31.431C6.15564 34.5433 1.24414 31.4161 1.24414 31.4161V41.6606L24.6666 41.6755C24.6666 41.6755 24.7389 31.431 24.6666 31.431Z" fill="#9A2E9B"/>
<path d="M25.4491 31.3828C25.4526 31.4195 25.4562 31.4608 25.4586 31.5113C25.4621 31.5939 25.4645 31.7086 25.4681 31.8577C25.4728 32.1331 25.4764 32.5254 25.4775 33.029C25.4811 33.9124 25.4787 35.1135 25.474 36.5555C25.4682 38.1968 25.4595 39.8381 25.4479 41.4793V41.6812C25.4479 41.8823 25.3655 42.0753 25.2188 42.2178C25.0721 42.3604 24.873 42.4409 24.6651 42.4418L1.24266 42.428C1.13939 42.4271 1.03732 42.4066 0.942266 42.3675C0.847216 42.3285 0.76105 42.2717 0.68869 42.2004C0.616329 42.1291 0.559191 42.0448 0.520538 41.9522C0.481884 41.8595 0.462473 41.7604 0.463411 41.6606V31.4161C0.463411 30.808 1.14896 30.4409 1.66845 30.7725C1.71471 30.8023 1.82501 30.8643 1.99581 30.9503C2.2947 31.0994 2.64814 31.2486 3.05141 31.3908C5.86238 32.3705 9.26046 32.374 13.0974 30.7289C18.1583 28.5561 21.758 28.5561 24.0898 29.9442C24.486 30.1794 24.7908 30.4226 25.0114 30.644C25.3898 30.605 25.3672 30.5809 25.4503 31.3828H25.4491ZM23.2809 31.2555C21.4188 30.1484 18.3481 30.1484 13.7213 32.1331C9.50242 33.9445 5.69633 33.9399 2.52954 32.8352C2.34926 32.7732 2.18083 32.709 2.02427 32.647V40.8954L23.8906 40.908C23.8999 39.4557 23.9074 38.0033 23.9131 36.5509C23.9179 35.1112 23.919 33.9124 23.9167 33.0348C23.9152 32.5973 23.9105 32.1598 23.9024 31.7224C23.7163 31.5422 23.5075 31.3853 23.2809 31.2555Z" fill="#56509F"/>
</svg>
