<svg xmlns="http://www.w3.org/2000/svg" viewBox="0 0 133 134"><g fill="currentColor" fill-rule="evenodd" transform="translate(1 1)"><polyline stroke="#03E4C3" stroke-linecap="round" stroke-linejoin="round" stroke-width="2" points="104.051 70.491 116.105 66.473 110.078 81.206 122.801 77.188"/><polyline stroke="#03E4C3" stroke-linecap="round" stroke-linejoin="round" stroke-width="2" points="111.985 38.337 124.039 34.319 118.012 49.052 130.735 45.034"/><polyline stroke="#03E4C3" stroke-linecap="round" stroke-linejoin="round" stroke-width="1.638" points="73.545 18.61 83.417 15.319 78.481 27.385 88.902 24.094"/><g transform="translate(0 .139)"><polyline stroke="#03E4C3" stroke-linecap="round" stroke-linejoin="round" stroke-width="1.638" points="37.879 3.471 47.751 .18 42.815 12.246 53.235 8.955"/><path stroke="#444" stroke-linecap="round" stroke-linejoin="round" stroke-width="2" d="M100.60975 106.63305L20.24175 131.37405C18.74925 131.83355 17.16675 130.99605 16.70725 129.50355L.12575 75.64205C-.33375 74.14905.50375 72.56655 1.99675 72.10705L82.36475 47.36605C83.85725 46.90655 85.43975 47.74405 85.89925 49.23655L102.48075 103.09805C102.94025 104.59105 102.10225 106.17355 100.60975 106.63305zM.36235 73.43115L41.03235 94.13565M62.4758 87.53425L84.4588 47.54525"/><path stroke="#444" stroke-linecap="round" stroke-linejoin="round" stroke-width="2" d="M62.4758 87.53425L57.4343 96.68375C56.0463 99.20275 52.9113 100.16825 50.3468 98.86575L41.0323 94.13575M34.9089 91.64165C34.0414 92.66065 33.0224 93.35715 31.8594 93.67265 30.7414 93.97665 29.5599 93.90865 28.3474 93.51065M72.28465 80.53045C71.41715 81.54945 70.39815 82.24595 69.23515 82.56145 68.11715 82.86545 66.93565 82.79745 65.72315 82.39945"/><path fill="currentColor" d="M60.04825,106.7617 C60.57875,108.5787 60.14925,110.3027 59.08875,110.6122 C58.02825,110.9217 56.73875,109.6997 56.20825,107.8827 C55.67825,106.0657 56.10775,104.3417 57.16825,104.0322 C58.22825,103.7227 59.51775,104.9447 60.04825,106.7617"/><path stroke="#444" stroke-dasharray="1.216 4.052" stroke-linecap="round" stroke-linejoin="round" stroke-width="2" d="M41.03245 94.1355L18.14995 131.203M102.24265 105.315L62.47565 87.534"/></g></g></svg>