<svg xmlns="http://www.w3.org/2000/svg" viewBox="0 0 70 10" xmlns:xlink="http://www.w3.org/1999/xlink"><defs><path id="star-sm" stroke="none" d="M3.4714 2.7416c.1505-.415.1505-.415.1707-.383l.03-.1704.51-1.406C4.353.312 4.627 0 5.042 0c.4237 0 .6966.323.857.8053l.4723 1.4195.2617.7863 1.576.054.747.0255c1.1206.0377 1.4115.9748.5088 1.6403l-.6024.444-.6023.4444-.6652.491.0665.231c.0986.3426.1176.4086.153.5686l.424 1.4347c.192.669.004 1.2735-.666 1.2735-.2406 0-.4845-.1025-.7373-.2836l-1.89-1.353-1.925 1.301c-.25.1694-.489.2646-.7227.2646-.683 0-.8667-.6175-.6546-1.29l.2266-.7142.2263-.714.2502-.7892-.1898-.148c-.229-.1783-.3075-.2394-.2798-.256h-.049L1.6914 5.53.512 4.61c-.884-.6893-.5677-1.618.553-1.6255l.7474-.0053 1.5767-.0117.082-.2262z"/><linearGradient id="fill" x1="0%" y1="0%" x2="100%" y2="0%"><stop offset="50%" stop-color="#FB4C4C" stop-opacity="1"/><stop offset="50%" stop-color="#BCBCBC" stop-opacity="1"/></linearGradient></defs><use class="star star-1" xlink:href="#star-sm"/><use class="star star-2" xlink:href="#star-sm" transform="translate(15)"/><use class="star star-3" xlink:href="#star-sm" transform="translate(30)"/><use class="star star-4" xlink:href="#star-sm" transform="translate(45)"/><use class="star star-5" xlink:href="#star-sm" transform="translate(60)"/></svg>