<svg width="50" height="43" viewBox="0 0 50 43" fill="none" xmlns="http://www.w3.org/2000/svg">
<path d="M49.4935 28.3008C50.4685 30.6952 48.0935 33.3691 44.8785 34.2438C41.8698 35.0608 39.4785 34.1578 38.4985 31.7521C37.4335 29.1382 38.526 26.3171 41.4498 25.5228C44.5335 24.6843 48.5285 25.9335 49.4935 28.3008ZM41.9585 27.0776C40.1285 27.5754 39.4298 29.3792 40.1673 31.1874C40.7998 32.7411 42.2123 33.2741 44.3698 32.6879C46.721 32.0486 48.3673 30.1962 47.826 28.8666C47.2273 27.4001 44.226 26.4608 41.9585 27.0776ZM28.7835 8.95758C29.8435 6.31421 28.781 3.18879 26.5885 2.44761C24.401 1.70642 21.3935 3.44679 20.3348 6.08676C19.3735 8.48571 20.511 10.6912 22.961 11.5206C25.4085 12.3489 27.8235 11.352 28.7835 8.95758ZM22.341 13.0414C18.9785 11.9031 17.3648 8.772 18.6635 5.53003C20.0298 2.12058 23.9823 -0.166341 27.2085 0.925633C30.4298 2.01648 31.821 6.10826 30.4548 9.51432C29.1535 12.7586 25.7073 14.1821 22.3423 13.0414H22.341Z" fill="#56509F"/>
<path fill-rule="evenodd" clip-rule="evenodd" d="M40.8622 20.2168C38.3097 21.8327 35.4497 21.1786 33.9034 19.1169C32.3572 17.054 32.7084 14.3643 35.2609 12.7484C37.8109 11.1313 41.6134 11.1902 43.1597 13.2519C44.7059 15.3148 43.4134 18.5997 40.8622 20.2168Z" fill="#9A2E9B"/>
<path d="M42.4249 13.7102C41.2387 12.1283 38.0412 11.9744 35.7687 13.4149C33.7099 14.7184 33.3024 16.8775 34.6387 18.6586C35.9712 20.4352 38.3012 20.8516 40.3537 19.5503C42.6312 18.1087 43.6162 15.2978 42.4249 13.7102ZM33.1699 19.5741C31.2874 17.0642 31.8837 13.8992 34.7537 12.083C37.7662 10.1729 42.0849 10.3811 43.8949 12.7948C45.6999 15.2039 44.3787 18.9766 41.3699 20.8833C38.4962 22.7029 35.0537 22.0873 33.1699 19.5741ZM4.85367 1.27529C8.17492 0.459422 11.8812 3.06884 12.9037 6.579C13.8737 9.91716 11.9537 12.8989 8.49117 13.7498C5.02492 14.6019 1.73617 12.8955 0.763666 9.55505C-0.256334 6.04716 1.53617 2.09116 4.85367 1.27529ZM2.48367 9.13976C3.20242 11.6066 5.50866 12.8027 8.02741 12.1837C10.5487 11.5636 11.9012 9.46453 11.1824 6.99542C10.3912 4.27511 7.56992 2.28805 5.31742 2.84253C3.06117 3.397 1.69242 6.41832 2.48367 9.13976ZM23.7812 18.1879C32.9999 22.1031 36.8662 31.7612 32.4824 38.494C29.1887 43.5545 19.6899 43.8566 17.3249 39.4208C16.3812 37.651 15.4799 36.6994 14.6424 36.3429C13.8074 35.9887 12.4362 35.9752 10.3612 36.4617C5.14991 37.6816 -0.750084 30.8457 1.30367 25.2659C4.02617 17.8699 14.6512 14.3122 23.7812 18.1879ZM23.0299 19.6589C14.8237 16.1737 5.35992 19.3443 2.98992 25.7819C1.35992 30.2098 6.15867 35.7703 9.91866 34.89C12.3574 34.3185 14.1312 34.3355 15.3937 34.873C16.6562 35.4094 17.8187 36.636 18.9249 38.7113C20.6349 41.9171 28.3437 41.6715 30.9524 37.6657C34.7774 31.7928 31.3299 23.1827 23.0299 19.6589Z" fill="#56509F"/>
</svg>
