<svg width="22" height="37" viewBox="0 0 22 37" fill="none" xmlns="http://www.w3.org/2000/svg">
<path d="M19.8138 18.991L20.2878 20.613C20.4658 21.23 20.6058 21.733 20.7308 22.219C21.2228 24.124 21.4748 25.709 21.4978 27.379V36.309C21.4978 36.679 21.2038 36.978 20.8398 36.978H1.03478C0.947625 36.9773 0.861457 36.9595 0.781203 36.9255C0.700948 36.8915 0.628182 36.8421 0.567068 36.7799C0.505953 36.7178 0.457689 36.6442 0.425037 36.5634C0.392385 36.4826 0.375986 36.3962 0.376777 36.309V27.346C0.486777 25.08 1.80278 23.388 4.21978 21.636C4.615 21.3504 5.01608 21.073 5.42278 20.804L5.64878 20.652C5.82878 20.531 5.95578 20.444 6.07678 20.361C6.70378 19.931 7.07678 19.637 7.30878 19.383C8.09078 18.527 8.63878 17.309 8.97578 15.819C9.34578 14.186 9.42378 12.445 9.33778 10.917C9.32678 10.726 9.31578 10.592 9.31178 10.543C9.06578 8.597 7.74278 7.289 5.62078 6.487C4.76078 6.162 3.83278 5.947 2.90278 5.821C2.49697 5.76673 2.08887 5.73136 1.67978 5.715C1.53242 5.71222 1.39024 5.6602 1.27588 5.56723C1.16152 5.47426 1.08158 5.34568 1.04878 5.202L0.0187768 0.823C-0.00487044 0.725534 -0.00619943 0.623985 0.014889 0.525933C0.0359775 0.427882 0.0789388 0.335859 0.140567 0.256733C0.202194 0.177607 0.280897 0.113422 0.370801 0.0689673C0.460704 0.0245128 0.559487 0.000937161 0.659777 0H17.1698L17.2518 0.005C19.3408 0.271 21.4978 1.986 21.4978 3.885V6.432C21.4978 6.801 21.2038 7.1 20.8398 7.1H18.2158V10.443C18.3558 13.324 18.8158 15.563 19.8138 18.992V18.991ZM20.1818 27.389C20.1598 25.849 19.9238 24.366 19.4568 22.558C19.32 22.0326 19.1757 21.5092 19.0238 20.988C18.9308 20.664 18.5988 19.534 18.5508 19.369C17.5238 15.84 17.0448 13.507 16.9008 10.491L16.8998 6.431C16.8998 6.061 17.1938 5.763 17.5578 5.763H20.1818V3.885C20.1818 2.795 18.6198 1.544 17.1268 1.335H1.49378L2.21478 4.405C2.47978 4.425 2.76878 4.455 3.07578 4.497C4.09578 4.634 5.11878 4.871 6.07978 5.234C8.61578 6.193 10.2998 7.858 10.6198 10.391C10.6278 10.476 10.6398 10.629 10.6518 10.84C10.7448 12.483 10.6608 14.342 10.2588 16.118C9.87478 17.818 9.23378 19.241 8.27478 20.291C7.95478 20.643 7.52078 20.982 6.81478 21.468C6.68978 21.554 6.55878 21.642 6.37678 21.765L6.14978 21.918L5.91978 22.073C5.54578 22.326 5.26178 22.523 4.98478 22.723C2.86478 24.261 1.77778 25.659 1.69278 27.379V35.641H20.1818V27.389Z" fill="#444444"/>
<path d="M4.03561 11.153C3.97451 11.2146 3.90173 11.2633 3.82154 11.2963C3.74135 11.3294 3.65536 11.3461 3.56863 11.3454C3.4819 11.3448 3.39618 11.3268 3.31649 11.2925C3.23681 11.2583 3.16477 11.2085 3.10461 11.146C2.9821 11.0188 2.91424 10.8487 2.91555 10.6721C2.91685 10.4955 2.98723 10.3264 3.11161 10.201L6.93161 6.377C6.9927 6.31544 7.06548 6.26671 7.14567 6.23366C7.22587 6.20062 7.31185 6.18394 7.39858 6.18459C7.48531 6.18524 7.57103 6.20322 7.65072 6.23746C7.73041 6.27171 7.80245 6.32153 7.86261 6.384C7.98525 6.51109 8.05329 6.68112 8.05217 6.85772C8.05105 7.03433 7.98085 7.20349 7.85661 7.329L4.03561 11.153ZM10.2416 11.299C10.1545 11.2983 10.0685 11.2806 9.98827 11.2466C9.90808 11.2127 9.83536 11.1633 9.77425 11.1013C9.71315 11.0393 9.66487 10.9658 9.63216 10.8851C9.59945 10.8044 9.58295 10.7181 9.58361 10.631C9.58361 10.261 9.87861 9.962 10.2416 9.962H17.3236C17.6876 9.962 17.9816 10.262 17.9816 10.631C17.9816 11 17.6876 11.299 17.3236 11.299H10.2416Z" fill="#444444"/>
<path fill-rule="evenodd" clip-rule="evenodd" d="M20.7968 27.398C20.7968 27.398 18.6568 24.137 11.3058 27.398C5.18983 30.111 1.04883 27.385 1.04883 27.385V36.315L20.7968 36.328C20.7968 36.328 20.8578 27.398 20.7968 27.398Z" fill="#03E5C4"/>
<path d="M21.4567 27.356C21.4597 27.388 21.4627 27.424 21.4647 27.468C21.4677 27.54 21.4697 27.64 21.4727 27.77C21.4767 28.01 21.4797 28.352 21.4807 28.791C21.4837 29.561 21.4817 30.608 21.4777 31.865C21.4728 33.2957 21.4654 34.7263 21.4557 36.157V36.333C21.4557 36.5083 21.3862 36.6765 21.2625 36.8007C21.1388 36.925 20.971 36.9952 20.7957 36.996L1.04765 36.984C0.960585 36.9832 0.874525 36.9653 0.794386 36.9312C0.714247 36.8972 0.641599 36.8477 0.58059 36.7856C0.519581 36.7234 0.471406 36.6499 0.438817 36.5692C0.406227 36.4884 0.389861 36.4021 0.390652 36.315V27.385C0.390652 26.855 0.968652 26.535 1.40665 26.824C1.44565 26.85 1.53865 26.904 1.68265 26.979C1.93465 27.109 2.23265 27.239 2.57265 27.363C4.94265 28.217 7.80765 28.22 11.0427 26.786C15.3097 24.892 18.3447 24.892 20.3107 26.102C20.6447 26.307 20.9017 26.519 21.0877 26.712C21.4067 26.678 21.3877 26.657 21.4577 27.356H21.4567ZM19.6287 27.245C18.0587 26.28 15.4697 26.28 11.5687 28.01C8.01165 29.589 4.80265 29.585 2.13265 28.622C1.98065 28.568 1.83865 28.512 1.70665 28.458V35.648L20.1427 35.659C20.1505 34.393 20.1568 33.127 20.1617 31.861C20.1657 30.606 20.1667 29.561 20.1647 28.796C20.1634 28.4146 20.1594 28.0333 20.1527 27.652C19.9957 27.4949 19.8197 27.3582 19.6287 27.245Z" fill="#444444"/>
</svg>
