<svg width="106" height="78" viewBox="0 0 106 78" fill="none" xmlns="http://www.w3.org/2000/svg">
<g clip-path="url(#clip0)">
<path d="M12 40.5H1.5C1.10218 40.5 0.720644 40.342 0.43934 40.0607C0.158035 39.7794 0 39.3978 0 39H0C0 38.6022 0.158035 38.2206 0.43934 37.9393C0.720644 37.658 1.10218 37.5 1.5 37.5H12.5C12.8978 37.5 13.2794 37.658 13.5607 37.9393C13.842 38.2206 14 38.6022 14 39C14 39.3978 13.842 39.7794 13.5607 40.0607C13.2794 40.342 12.8978 40.5 12.5 40.5" fill="#56509F"/>
<path d="M15 23.5H8.5C8.10218 23.5 7.72064 23.342 7.43934 23.0607C7.15804 22.7794 7 22.3978 7 22C7 21.6022 7.15804 21.2206 7.43934 20.9393C7.72064 20.658 8.10218 20.5 8.5 20.5H15.5C15.8978 20.5 16.2794 20.658 16.5607 20.9393C16.842 21.2206 17 21.6022 17 22C17 22.3978 16.842 22.7794 16.5607 23.0607C16.2794 23.342 15.8978 23.5 15.5 23.5" fill="#56509F"/>
<path d="M16 60.5H9.40002C9.0022 60.5 8.62067 60.342 8.33936 60.0607C8.05806 59.7794 7.90002 59.3978 7.90002 59C7.90002 58.6022 8.05806 58.2206 8.33936 57.9393C8.62067 57.658 9.0022 57.5 9.40002 57.5H16.4C16.7978 57.5 17.1794 57.658 17.4607 57.9393C17.742 58.2206 17.9 58.6022 17.9 59C17.9 59.3978 17.742 59.7794 17.4607 60.0607C17.1794 60.342 16.7978 60.5 16.4 60.5" fill="#56509F"/>
<path d="M83.0833 55.1577C95.3458 42.8953 95.3458 23.0139 83.0833 10.7514C70.8209 -1.51103 50.9395 -1.51103 38.677 10.7514C26.4146 23.0139 26.4146 42.8953 38.677 55.1577C50.9395 67.4202 70.8209 67.4202 83.0833 55.1577Z" stroke="#56509F" stroke-width="3" stroke-linecap="round" stroke-linejoin="round"/>
<path d="M103.3 75.2001L84.1 56.1001" stroke="#56509F" stroke-width="4" stroke-linecap="round" stroke-linejoin="round"/>
<path d="M43.5 17.4999C45.7845 15.214 48.497 13.4007 51.4826 12.1635C54.4682 10.9263 57.6683 10.2896 60.9 10.2896C64.1318 10.2896 67.3318 10.9263 70.3174 12.1635C73.303 13.4007 76.0155 15.214 78.3 17.4999" stroke="#E54778" stroke-width="3" stroke-linecap="round" stroke-linejoin="round"/>
</g>
<defs>
<clipPath id="clip0">
<rect width="105.3" height="77.2" fill="white"/>
</clipPath>
</defs>
</svg>
