<svg id="magnify" xmlns="http://www.w3.org/2000/svg" viewBox="0 0 105.3 77.2"><defs><style>.cls-1{fill:#444;}.cls-2,.cls-3,.cls-4{fill:none;stroke-linecap:round;stroke-linejoin:round;}.cls-2,.cls-3{stroke:#444;}.cls-2,.cls-4{stroke-width:3px;}.cls-3{stroke-width:4px;}.cls-4{stroke:#03e4c3;}</style></defs><title>magnify6</title><g id="Symbols"><g id="Icon"><g id="Group-2"><path id="Fill-6" class="cls-1" d="M12,41H1.5A1.5,1.5,0,0,1,0,39.5H0A1.5,1.5,0,0,1,1.5,38h11A1.5,1.5,0,0,1,14,39.5h0A1.5,1.5,0,0,1,12.5,41" transform="translate(0 -0.5)"/><path id="Fill-8" class="cls-1" d="M15,24H8.5A1.5,1.5,0,0,1,7,22.5H7A1.5,1.5,0,0,1,8.5,21h7A1.5,1.5,0,0,1,17,22.5h0A1.5,1.5,0,0,1,15.5,24" transform="translate(0 -0.5)"/><path id="Fill-10" class="cls-1" d="M16,61H9.4a1.5,1.5,0,0,1-1.5-1.5h0A1.5,1.5,0,0,1,9.4,58h7a1.5,1.5,0,0,1,1.5,1.5h0A1.5,1.5,0,0,1,16.4,61" transform="translate(0 -0.5)"/></g></g></g><circle class="cls-2" cx="60.9" cy="33.4" r="31.4" transform="translate(-5.8 52.4) rotate(-45)"/><g id="Search"><line class="cls-3" x1="103.3" y1="75.2" x2="84.1" y2="56.1"/></g><path class="cls-4" d="M43.5,18a24.6,24.6,0,0,1,34.8,0" transform="translate(0 -0.5)"/></svg>