<svg width="133" height="134" viewBox="0 0 133 134" fill="none" xmlns="http://www.w3.org/2000/svg">
<g clip-path="url(#clip0)">
<path d="M105.051 71.491L117.105 67.473L111.078 82.206L123.801 78.188" stroke="#03E4C3" stroke-width="2" stroke-linecap="round" stroke-linejoin="round"/>
<path fill-rule="evenodd" clip-rule="evenodd" d="M112.985 39.337L125.039 35.319L119.012 50.052L131.735 46.034" fill="white"/>
<path d="M112.985 39.337L125.039 35.319L119.012 50.052L131.735 46.034" stroke="#03E4C3" stroke-width="2" stroke-linecap="round" stroke-linejoin="round"/>
<path fill-rule="evenodd" clip-rule="evenodd" d="M74.5449 19.61L84.4169 16.319L79.4809 28.385L89.9019 25.094" fill="white"/>
<path d="M74.5449 19.61L84.4169 16.319L79.4809 28.385L89.9019 25.094" stroke="#03E4C3" stroke-width="1.638" stroke-linecap="round" stroke-linejoin="round"/>
<path d="M38.8789 4.61L48.7509 1.319L43.8149 13.385L54.2349 10.094" stroke="#03E4C3" stroke-width="1.638" stroke-linecap="round" stroke-linejoin="round"/>
<path fill-rule="evenodd" clip-rule="evenodd" d="M101.61 107.772L21.2417 132.513C19.7492 132.973 18.1667 132.135 17.7072 130.643L1.12567 76.7811C0.666172 75.2881 1.50367 73.7056 2.99667 73.2461L83.3647 48.5051C84.8572 48.0456 86.4397 48.8831 86.8992 50.3756L103.481 104.237C103.94 105.73 103.102 107.313 101.61 107.772ZM1.36227 74.5702L42.0323 95.2747L1.36227 74.5702ZM63.4757 88.6733L85.4587 48.6843L63.4757 88.6733Z" fill="white"/>
<path d="M63.4757 88.6733L85.4587 48.6843M101.61 107.772L21.2417 132.513C19.7492 132.973 18.1667 132.135 17.7072 130.643L1.12567 76.7811C0.666172 75.2881 1.50367 73.7056 2.99667 73.2461L83.3647 48.5051C84.8572 48.0456 86.4397 48.8831 86.8992 50.3756L103.481 104.237C103.94 105.73 103.102 107.313 101.61 107.772ZM1.36227 74.5702L42.0323 95.2747L1.36227 74.5702Z" stroke="#444444" stroke-width="2" stroke-linecap="round" stroke-linejoin="round"/>
<path fill-rule="evenodd" clip-rule="evenodd" d="M63.4758 88.6732L58.4343 97.8227C57.0463 100.342 53.9113 101.307 51.3468 100.005L42.0323 95.2747L63.4758 88.6732ZM35.9089 92.7806C35.0414 93.7996 34.0224 94.4962 32.8594 94.8117C31.7414 95.1157 30.5599 95.0477 29.3474 94.6497L35.9089 92.7806ZM73.2847 81.6694C72.4172 82.6884 71.3982 83.3849 70.2352 83.7004C69.1172 84.0044 67.9357 83.9365 66.7232 83.5385" fill="white"/>
<path d="M73.2847 81.6694C72.4172 82.6884 71.3982 83.3849 70.2352 83.7004C69.1172 84.0044 67.9357 83.9365 66.7232 83.5385M63.4758 88.6732L58.4343 97.8227C57.0463 100.342 53.9113 101.307 51.3468 100.005L42.0323 95.2747L63.4758 88.6732ZM35.9089 92.7806C35.0414 93.7996 34.0224 94.4962 32.8594 94.8117C31.7414 95.1157 30.5599 95.0477 29.3474 94.6497L35.9089 92.7806Z" stroke="#444444" stroke-width="2" stroke-linecap="round" stroke-linejoin="round"/>
<path fill-rule="evenodd" clip-rule="evenodd" d="M42.0324 95.2745L19.1499 132.342L42.0324 95.2745ZM103.243 106.454L63.4756 88.673L103.243 106.454Z" fill="black"/>
<path d="M103.243 106.454L63.4756 88.673M42.0324 95.2745L19.1499 132.342L42.0324 95.2745Z" stroke="#444444" stroke-width="2" stroke-linecap="round" stroke-linejoin="round" stroke-dasharray="1.22 4.05"/>
</g>
<defs>
<clipPath id="clip0">
<rect width="133" height="134" fill="white"/>
</clipPath>
</defs>
</svg>
