<svg width="53" height="43" viewBox="0 0 53 43" fill="none" xmlns="http://www.w3.org/2000/svg">
<path fill-rule="evenodd" clip-rule="evenodd" d="M21.4608 38.8039C22.1532 39.481 22.9307 40.0636 23.7734 40.5369C25.269 41.3839 27.1098 41.3839 28.6067 40.5369C29.4489 40.0634 30.2259 39.4808 30.918 38.8039L47.6376 22.3961C48.7286 21.3315 49.5961 20.0566 50.1886 18.6473C50.781 17.2379 51.0863 15.7229 51.0863 14.1923C51.0863 12.6616 50.781 11.1466 50.1886 9.73726C49.5961 8.32792 48.7286 7.05303 47.6376 5.98839C43.0395 1.4786 35.5161 1.4786 30.918 5.98839L26.1894 10.6298L21.4608 5.98839C16.8627 1.4786 9.33927 1.4786 4.7412 5.98839C3.6502 7.05303 2.78269 8.32792 2.19023 9.73726C1.59778 11.1466 1.29248 12.6616 1.29248 14.1923C1.29248 15.7229 1.59778 17.2379 2.19023 18.6473C2.78269 20.0566 3.6502 21.3315 4.7412 22.3961L21.4608 38.8039ZM14.3316 30.7147L22.2532 22.9408Z" fill="white"/>
<path d="M22.1653 38.4026L30.0868 30.6287M18.2484 34.5586L26.17 26.7848M14.3316 30.7147L22.2532 22.9408M21.4608 38.8039C22.1532 39.481 22.9307 40.0636 23.7734 40.5369C25.269 41.3839 27.1098 41.3839 28.6067 40.5369C29.4489 40.0634 30.2259 39.4808 30.918 38.8039L47.6376 22.3961C48.7286 21.3315 49.5961 20.0566 50.1886 18.6473C50.781 17.2379 51.0863 15.7229 51.0863 14.1923C51.0863 12.6616 50.781 11.1466 50.1886 9.73726C49.5961 8.32792 48.7286 7.05303 47.6376 5.98839C43.0395 1.4786 35.5161 1.4786 30.918 5.98839L26.1894 10.6298L21.4608 5.98839C16.8627 1.4786 9.33927 1.4786 4.7412 5.98839C3.6502 7.05303 2.78269 8.32792 2.19023 9.73726C1.59778 11.1466 1.29248 12.6616 1.29248 14.1923C1.29248 15.7229 1.59778 17.2379 2.19023 18.6473C2.78269 20.0566 3.6502 21.3315 4.7412 22.3961L21.4608 38.8039Z" stroke="#56509F" stroke-width="1.5" stroke-linecap="round" stroke-linejoin="round"/>
<path fill-rule="evenodd" clip-rule="evenodd" d="M9.22266 26.9059L21.8056 14.8907Z" fill="black"/>
<path d="M9.22266 26.9059L21.8056 14.8907" stroke="#444444" stroke-width="1.5" stroke-linecap="square" stroke-linejoin="round"/>
<path fill-rule="evenodd" clip-rule="evenodd" d="M32.4368 16.7576L21.0586 5.59068L21.0431 5.61934C16.4191 1.49395 9.20598 1.60862 4.74364 5.9881C3.65264 7.05275 2.78513 8.32763 2.19268 9.73697C1.60022 11.1463 1.29492 12.6613 1.29492 14.192C1.29492 15.7226 1.60022 17.2376 2.19268 18.647C2.78513 20.0563 3.65264 21.3312 4.74364 22.3959L9.32878 26.9083L21.8071 14.8904L28.242 20.8752C28.8057 21.4222 29.5576 21.7278 30.3401 21.7278C31.1225 21.7278 31.8745 21.4222 32.4381 20.8752C32.7129 20.6086 32.9314 20.2889 33.0808 19.9351C33.2301 19.5814 33.307 19.2009 33.307 18.8164C33.307 18.432 33.2301 18.0515 33.0808 17.6978C32.9314 17.344 32.7129 17.0242 32.4381 16.7576" fill="black"/>
<path fill-rule="evenodd" clip-rule="evenodd" d="M32.4368 16.7576L21.0586 5.59068L21.0431 5.61934C16.4191 1.49395 9.20598 1.60862 4.74364 5.9881C3.65264 7.05275 2.78513 8.32763 2.19268 9.73697C1.60022 11.1463 1.29492 12.6613 1.29492 14.192C1.29492 15.7226 1.60022 17.2376 2.19268 18.647C2.78513 20.0563 3.65264 21.3312 4.74364 22.3959L9.32878 26.9083L21.8071 14.8904L28.242 20.8752C28.8057 21.4222 29.5576 21.7278 30.3401 21.7278C31.1225 21.7278 31.8745 21.4222 32.4381 20.8752C32.7129 20.6086 32.9314 20.2889 33.0808 19.9351C33.2301 19.5814 33.307 19.2009 33.307 18.8164C33.307 18.432 33.2301 18.0515 33.0808 17.6978C32.9314 17.344 32.7116 17.0242 32.4368 16.7576Z" fill="#732B81" stroke="#56509F" stroke-width="1.5" stroke-linecap="round"/>
<path fill-rule="evenodd" clip-rule="evenodd" d="M13.0029 15.8093C17.2623 19.4265 21.7751 15.3037 21.7751 15.3037Z" fill="#732B81"/>
<path d="M13.0029 15.8093C17.2623 19.4265 21.7751 15.3037 21.7751 15.3037" stroke="#56509F" stroke-width="1.5" stroke-linecap="round" stroke-linejoin="round"/>
</svg>
