<svg width="40" height="38" viewBox="0 0 40 38" fill="none" xmlns="http://www.w3.org/2000/svg">
<path d="M39.5948 25.01C40.3748 27.126 38.4748 29.489 35.9028 30.262C33.4958 30.984 31.5828 30.186 30.7988 28.06C29.9468 25.75 30.8208 23.257 33.1598 22.555C35.6268 21.814 38.8228 22.918 39.5948 25.01ZM33.5668 23.929C32.1028 24.369 31.5438 25.963 32.1338 27.561C32.6398 28.934 33.7698 29.405 35.4958 28.887C37.3768 28.322 38.6938 26.685 38.2608 25.51C37.7818 24.214 35.3808 23.384 33.5668 23.929ZM23.0268 7.91603C23.8748 5.58003 23.0248 2.81803 21.2708 2.16303C19.5208 1.50803 17.1148 3.04603 16.2678 5.37903C15.4988 7.49903 16.4088 9.44803 18.3688 10.181C20.3268 10.913 22.2588 10.032 23.0268 7.91603ZM17.8728 11.525C15.1828 10.519 13.8918 7.75203 14.9308 4.88703C16.0238 1.87403 19.1858 -0.146973 21.7668 0.818027C24.3438 1.78203 25.4568 5.39803 24.3638 8.40803C23.3228 11.275 20.5658 12.533 17.8738 11.525H17.8728Z" fill="#444444"/>
<path fill-rule="evenodd" clip-rule="evenodd" d="M32.6897 17.866C30.6477 19.294 28.3597 18.716 27.1227 16.894C25.8857 15.071 26.1667 12.694 28.2087 11.266C30.2487 9.83703 33.2907 9.88903 34.5277 11.711C35.7647 13.534 34.7307 16.437 32.6897 17.866Z" fill="#03E5C4"/>
<path d="M33.9398 12.116C32.9908 10.718 30.4328 10.582 28.6148 11.855C26.9678 13.007 26.6418 14.915 27.7108 16.489C28.7768 18.059 30.6408 18.427 32.2828 17.277C34.1048 16.003 34.8928 13.519 33.9398 12.116ZM26.5358 17.298C25.0298 15.08 25.5068 12.283 27.8028 10.678C30.2128 8.99004 33.6678 9.17404 35.1158 11.307C36.5598 13.436 35.5028 16.77 33.0958 18.455C30.7968 20.063 28.0428 19.519 26.5358 17.298ZM3.88284 1.12704C6.53983 0.406044 9.50484 2.71204 10.3228 5.81404C11.0988 8.76404 9.56284 11.399 6.79284 12.151C4.01984 12.904 1.38884 11.396 0.610835 8.44404C-0.205165 5.34404 1.22884 1.84804 3.88284 1.12704ZM1.98684 8.07704C2.56184 10.257 4.40683 11.314 6.42183 10.767C8.43884 10.219 9.52083 8.36404 8.94584 6.18204C8.31284 3.77804 6.05584 2.02204 4.25384 2.51204C2.44884 3.00204 1.35384 5.67204 1.98684 8.07704ZM19.0248 16.073C26.3998 19.533 29.4928 28.068 25.9858 34.018C23.3508 38.49 15.7518 38.757 13.8598 34.837C13.1048 33.273 12.3838 32.432 11.7138 32.117C11.0458 31.804 9.94883 31.792 8.28883 32.222C4.11983 33.3 -0.600165 27.259 1.04284 22.328C3.22084 15.792 11.7208 12.648 19.0248 16.073ZM18.4238 17.373C11.8588 14.293 4.28784 17.095 2.39184 22.784C1.08784 26.697 4.92684 31.611 7.93483 30.833C9.88583 30.328 11.3048 30.343 12.3148 30.818C13.3248 31.292 14.2548 32.376 15.1398 34.21C16.5078 37.043 22.6748 36.826 24.7618 33.286C27.8218 28.096 25.0638 20.487 18.4238 17.373Z" fill="#444444"/>
</svg>
