<svg width="17" height="17" viewBox="0 0 17 17" fill="none" xmlns="http://www.w3.org/2000/svg">
<g clip-path="url(#clip0)">
<path fill-rule="evenodd" clip-rule="evenodd" d="M8.5911 11.6787C6.88538 11.6787 5.49756 10.2925 5.49756 8.58859C5.49756 6.8855 6.88538 5.5 8.5911 5.5C10.2957 5.5 11.6825 6.8855 11.6825 8.58859C11.6825 10.2925 10.2958 11.6787 8.5911 11.6787Z" stroke="black" stroke-width="1.5"/>
<path fill-rule="evenodd" clip-rule="evenodd" d="M0.987044 5.75435C0.918658 5.55305 1.02104 5.31737 1.215 5.23005C1.215 5.23005 2.53211 4.63814 3.58534 3.58453C4.52807 2.64219 5.22058 1.20994 5.22058 1.20994C5.31331 1.01869 5.55093 0.924802 5.74952 1.00092C5.74952 1.00092 7.07351 1.51169 8.5896 1.51169C9.89667 1.51169 11.4247 0.987393 11.4247 0.987393C11.626 0.918234 11.8609 1.02101 11.9471 1.21496C11.9471 1.21496 12.522 2.51276 13.5942 3.58453C14.5364 4.52726 15.9691 5.22039 15.9691 5.22039C16.1605 5.31273 16.2608 5.55305 16.1922 5.75435C16.1922 5.75435 15.6992 7.20398 15.6992 8.5891C15.6992 10.053 16.1875 11.4262 16.1875 11.4262C16.2586 11.6263 16.1597 11.8643 15.9676 11.9551C15.9676 11.9551 14.5736 12.6142 13.5942 13.5941C12.522 14.6658 11.947 15.9632 11.947 15.9632C11.8609 16.1576 11.626 16.26 11.4247 16.1912C11.4247 16.1912 9.89659 15.6669 8.58952 15.6669C7.07343 15.6669 5.74928 16.1777 5.74928 16.1777C5.55069 16.2538 5.31308 16.1599 5.22035 15.9686C5.22035 15.9686 4.5276 14.5364 3.5848 13.5941C2.53157 12.5404 1.21446 11.9485 1.21446 11.9485C1.0205 11.8612 0.919508 11.6259 0.989826 11.4254C0.989826 11.4254 1.47973 10.0268 1.47973 8.5891C1.47973 7.20398 0.986349 5.75435 0.986349 5.75435H0.987044Z" stroke="black" stroke-width="1.5"/>
</g>
<defs>
<clipPath id="clip0">
<rect width="17" height="17" fill="white"/>
</clipPath>
</defs>
</svg>
