<svg width="22" height="22" viewBox="0 0 22 22" fill="none" xmlns="http://www.w3.org/2000/svg">
<mask id="mask0" mask-type="alpha" maskUnits="userSpaceOnUse" x="3" y="1" width="16" height="20">
<path d="M13.9562 5.47654C13.9562 3.8441 12.6327 2.52075 10.9999 2.52075C9.36755 2.52075 8.04414 3.84415 8.04414 5.47654C8.04414 7.10893 9.36755 8.43234 10.9999 8.43234C12.6327 8.43234 13.9562 7.10899 13.9562 5.47654V5.47654ZM15.3312 5.47654C15.3312 7.8684 13.3921 9.80734 10.9999 9.80734C8.60816 9.80734 6.66914 7.86832 6.66914 5.47654C6.66914 3.08477 8.60816 1.14575 10.9999 1.14575C13.3921 1.14575 15.3312 3.08469 15.3312 5.47654ZM11.0003 13.1839C10.2135 13.1839 9.43823 13.0599 8.68751 12.8215C6.3043 13.7322 4.86151 16.1941 4.68607 19.4791H17.3141C17.1387 16.1939 15.6961 13.7321 13.3127 12.8215C12.5625 13.0598 11.7869 13.1839 11.0003 13.1839ZM13.5394 11.4423C16.8456 12.5534 18.7072 15.9007 18.7072 20.1666C18.7072 20.5463 18.3994 20.8541 18.0197 20.8541H3.98047C3.60078 20.8541 3.29297 20.5463 3.29297 20.1666C3.29297 15.901 5.15484 12.5535 8.46071 11.4423C8.60601 11.3935 8.76346 11.3946 8.90805 11.4455C9.58769 11.6847 10.2891 11.8089 11.0003 11.8089C11.7112 11.8089 12.4131 11.6846 13.092 11.4455C13.2366 11.3946 13.3941 11.3934 13.5394 11.4423H13.5394Z" fill="white"/>
</mask>
<g mask="url(#mask0)">
<path d="M13.9562 5.47654C13.9562 3.8441 12.6327 2.52075 10.9999 2.52075C9.36755 2.52075 8.04414 3.84415 8.04414 5.47654C8.04414 7.10893 9.36755 8.43234 10.9999 8.43234C12.6327 8.43234 13.9562 7.10899 13.9562 5.47654V5.47654ZM15.3312 5.47654C15.3312 7.8684 13.3921 9.80734 10.9999 9.80734C8.60816 9.80734 6.66914 7.86832 6.66914 5.47654C6.66914 3.08477 8.60816 1.14575 10.9999 1.14575C13.3921 1.14575 15.3312 3.08469 15.3312 5.47654ZM11.0003 13.1839C10.2135 13.1839 9.43823 13.0599 8.68751 12.8215C6.3043 13.7322 4.86151 16.1941 4.68607 19.4791H17.3141C17.1387 16.1939 15.6961 13.7321 13.3127 12.8215C12.5625 13.0598 11.7869 13.1839 11.0003 13.1839ZM13.5394 11.4423C16.8456 12.5534 18.7072 15.9007 18.7072 20.1666C18.7072 20.5463 18.3994 20.8541 18.0197 20.8541H3.98047C3.60078 20.8541 3.29297 20.5463 3.29297 20.1666C3.29297 15.901 5.15484 12.5535 8.46071 11.4423C8.60601 11.3935 8.76346 11.3946 8.90805 11.4455C9.58769 11.6847 10.2891 11.8089 11.0003 11.8089C11.7112 11.8089 12.4131 11.6846 13.092 11.4455C13.2366 11.3946 13.3941 11.3934 13.5394 11.4423H13.5394Z" fill="#444444"/>
<path fill-rule="evenodd" clip-rule="evenodd" d="M0 0H22V22H0V0Z" fill="black"/>
</g>
</svg>
