<svg width="22" height="19" viewBox="0 0 22 19" fill="none" xmlns="http://www.w3.org/2000/svg">
<g clip-path="url(#clip0)">
<path d="M2.31885 7.58657C2.46801 7.00845 2.67701 6.45305 2.93837 5.92839C4.36819 3.05732 7.37339 1.07959 10.849 1.07959C14.3184 1.07959 17.3192 3.04989 18.7522 5.91284M19.3885 11.8117C19.2375 12.4062 19.0236 12.9762 18.7543 13.5152C17.3217 16.3807 14.3195 18.3524 10.8488 18.3524C7.3719 18.3524 4.36634 16.3738 2.9367 13.5014" stroke="black" stroke-width="1.5" stroke-linecap="round" stroke-linejoin="round"/>
<path d="M8.38386 11.9113C8.38386 13.0064 9.48386 13.9024 10.8281 13.9024C12.1723 13.9024 13.2723 13.0064 13.2723 11.9113C13.2723 11.9113 13.3691 9.95947 10.8765 9.95947C8.38386 9.95947 8.38386 7.92906 8.38386 7.92906C8.38386 6.83397 9.48386 5.93794 10.8281 5.93794M10.8281 5.93794C12.1723 5.93794 13.2723 6.83397 13.2723 7.92906M10.8281 5.93794L10.8283 4.79492M10.8283 13.907V15.05M20.5562 7.14229C20.5562 7.85789 19.9653 8.43774 19.2362 8.43774C18.5071 8.43774 17.9162 7.85789 17.9162 7.14229C17.9162 6.42685 18.5071 5.84683 19.2362 5.84683C19.9653 5.84683 20.5562 6.42685 20.5562 7.14229ZM3.7401 12.2878C3.7401 13.0034 3.14909 13.5833 2.4201 13.5833C1.69093 13.5833 1.1001 13.0034 1.1001 12.2878C1.1001 11.5723 1.69093 10.9924 2.4201 10.9924C3.14909 10.9924 3.7401 11.5723 3.7401 12.2878Z" stroke="black" stroke-width="1.5" stroke-linecap="round" stroke-linejoin="round"/>
</g>
<defs>
<clipPath id="clip0">
<rect width="22" height="19" fill="white"/>
</clipPath>
</defs>
</svg>
