<svg width="56" height="44" viewBox="0 0 56 44" fill="none" xmlns="http://www.w3.org/2000/svg">
<path d="M53.3907 8.81544C53.702 5.71771 51.6135 2.88879 48.5614 2.27417C45.6974 1.6974 42.8609 3.24698 41.7687 5.89994C44.3923 8.16145 46.4228 11.0305 47.6832 14.2568C50.6506 14.1031 53.0904 11.8041 53.3907 8.81544ZM27.5107 32.1353C27.5138 32.0628 27.5259 31.9909 27.5469 31.9214C27.5821 31.8041 27.6416 31.6955 27.7216 31.6028C27.8069 31.5026 27.9191 31.4192 28.0487 31.3653C28.1478 31.324 28.2537 31.3014 28.3611 31.2986C28.4544 31.2959 28.5476 31.3082 28.637 31.3352C28.7543 31.3704 28.8629 31.4299 28.9556 31.5099C29.0558 31.5951 29.1392 31.7074 29.1931 31.837C29.2212 31.9044 29.2407 31.9751 29.2511 32.0474C29.409 32.9864 29.9062 33.8348 30.6483 34.4314L30.7395 34.5161C31.3191 35.1366 32.4372 35.0262 33.4084 34.1752C33.7719 33.8568 34.3247 33.8932 34.6432 34.2567C34.9616 34.6202 34.9252 35.173 34.5617 35.4914C32.9678 36.888 30.8245 37.1136 29.5053 35.7574C29.045 35.3793 28.6476 34.9306 28.3278 34.4279C28.173 34.6205 28.0006 34.8152 27.7726 35.0594C27.6773 35.1615 27.2666 35.5941 27.1578 35.7106C25.8396 37.1219 23.5896 36.902 22.041 35.4773C21.6853 35.1501 21.6623 34.5965 21.9895 34.2409C22.3166 33.8853 22.8702 33.8622 23.2258 34.1894C24.1317 35.0228 25.2991 35.1368 25.879 34.5161C25.9942 34.3927 26.4047 33.9603 26.4934 33.8652C26.7016 33.6422 26.851 33.4731 26.977 33.3151C27.3269 32.8766 27.4835 32.5352 27.5107 32.1353V32.1353ZM46.2512 15.4229C45.0514 12.0677 42.9544 9.10567 40.1884 6.8592L39.7307 6.48747L39.9034 5.92368C41.079 2.0866 44.9728 -0.233651 48.9069 0.558609C52.8411 1.35087 55.5332 4.9974 55.132 8.99041C54.7307 12.9834 51.3668 16.0214 47.3186 16.0142L46.4496 15.978L46.2512 15.4229V15.4229ZM20.5217 23.435C20.5217 24.7183 19.4717 25.185 18.1884 25.185C16.9051 25.185 15.8551 24.7183 15.8551 23.435C15.8551 22.1463 16.8997 21.1017 18.1884 21.1017C19.4771 21.1017 20.5217 22.1463 20.5217 23.435ZM41.0901 23.435C41.0901 24.7183 40.0401 25.185 38.7567 25.185C37.4734 25.185 36.4234 24.7183 36.4234 23.435C36.4234 22.1463 37.4681 21.1017 38.7567 21.1017C40.0454 21.1017 41.0901 22.1463 41.0901 23.435ZM28.0292 3.003C17.4953 3.003 8.88581 11.4084 8.6334 21.9183C8.6334 31.4496 20.0339 41.8333 28.0234 41.8333C36.0123 41.8333 47.4167 31.4559 47.4251 21.9287C47.1669 11.4028 38.5597 3.003 28.0292 3.003V3.003ZM49.1748 21.8973C49.1751 32.4535 36.9468 43.5833 28.0234 43.5833C19.102 43.5833 6.8834 32.4545 6.88366 21.8973C7.15911 10.4166 16.5451 1.253 28.0292 1.253C39.5133 1.253 48.8994 10.4166 49.1748 21.8973V21.8973ZM29.2005 30.5117C29.3205 30.4307 29.7972 30.1228 29.904 30.0496C30.2394 29.8195 30.3217 29.7197 30.3217 29.7C30.3217 29.072 29.4655 28.44 28.3034 28.44C27.1413 28.44 26.2851 29.072 26.2851 29.7C26.2851 29.7511 26.3601 29.8495 26.6749 30.0778C26.7786 30.153 27.3433 30.5334 27.5126 30.6558C27.7929 30.8584 28.0399 31.0616 28.2568 31.276C28.5153 31.0105 28.828 30.7632 29.2005 30.5117H29.2005ZM32.0717 29.7C32.0717 30.471 31.6655 30.9634 30.8938 31.4927C30.7619 31.5832 30.278 31.8957 30.1798 31.962C29.5765 32.3694 29.2704 32.6929 29.1357 33.1083C28.8891 33.8687 27.8359 33.9274 27.5063 33.1992C27.316 32.7788 27.0048 32.4481 26.4873 32.074C26.3497 31.9745 25.7836 31.5931 25.6476 31.4945C24.9217 30.9681 24.5351 30.4611 24.5351 29.7C24.5351 27.9706 26.2699 26.69 28.3034 26.69C30.3369 26.69 32.0717 27.9706 32.0717 29.7V29.7ZM7.5743 9.4606C7.21866 9.13341 7.1956 8.57987 7.52279 8.22424C7.84998 7.8686 8.40352 7.84554 8.75915 8.17272C9.67187 9.01242 11.0046 9.15092 11.5908 8.53065C11.9227 8.17944 12.4765 8.16379 12.8277 8.49572C13.179 8.82764 13.1946 9.38144 12.8627 9.73266C11.5342 11.1384 9.12595 10.8881 7.57431 9.46059L7.5743 9.4606ZM47.241 8.17272C47.5966 7.84554 48.1501 7.8686 48.4773 8.22424C48.8045 8.57987 48.7815 9.13342 48.4258 9.4606C46.8789 10.8837 44.4434 11.1159 43.1141 9.70934C42.7822 9.35811 42.7978 8.80431 43.1491 8.47239C43.5003 8.14046 44.0541 8.15611 44.386 8.50733C44.9788 9.13455 46.3362 9.00515 47.241 8.17273L47.241 8.17272ZM9.74897 15.4229L9.55049 15.978L8.96149 16.0026L8.64645 16.015C4.63334 16.0214 1.26943 12.9834 0.868171 8.99041C0.466908 4.9974 3.15907 1.35087 7.09321 0.558609C11.0274 -0.233651 14.9211 2.08659 16.0967 5.92368L16.2694 6.48747L15.8117 6.8592C13.0457 9.10566 10.9487 12.0677 9.74898 15.4229H9.74897ZM14.2314 5.89994C13.1392 3.24698 10.3027 1.6974 7.4387 2.27417C4.38665 2.88879 2.29811 5.71771 2.6094 8.81544C2.91078 11.8145 5.3665 14.1191 8.31607 14.259C9.57636 11.0318 11.6072 8.16198 14.2314 5.89994V5.89994Z" fill="#56509F"/>
<mask id="mask0" mask-type="alpha" maskUnits="userSpaceOnUse" x="0" y="0" width="56" height="44">
<path fill-rule="evenodd" clip-rule="evenodd" d="M0 0H56V44H0V0Z" fill="#56509F"/>
<path d="M47.0752 15.1283C45.8215 11.6224 43.6304 8.52734 40.7402 6.17999C41.7839 2.77308 45.2412 0.712945 48.7343 1.41639C52.2274 2.11983 54.6177 5.35756 54.2614 8.90292C53.9052 12.4483 50.9184 15.1457 47.3552 15.14L47.0752 15.1283V15.1283ZM31.1968 29.7C31.1968 30.8667 28.8635 31.1117 28.3035 32.8383C27.5218 31.1117 25.4102 30.8783 25.4102 29.7C25.4102 28.5217 26.7052 27.565 28.3035 27.565C29.9018 27.565 31.1968 28.5217 31.1968 29.7V29.7Z" fill="white"/>
</mask>
<g mask="url(#mask0)">
<path d="M47.72 14.4883C46.4663 10.9824 44.3902 8.34734 41.5 6C42.5438 2.59308 46.5 1.5 49 2C51.282 2.4564 53.8563 5.45462 53.5 8.99998C53.1437 12.5453 51.5 13.5 48 14.5L47.72 14.4883ZM31.1968 29.7C31.1968 30.8667 28.8635 31.1117 28.3035 32.8383C27.5218 31.1117 25.4102 30.8783 25.4102 29.7C25.4102 28.5217 26.7052 27.565 28.3035 27.565C29.9018 27.565 31.1968 28.5217 31.1968 29.7Z" fill="#9A2E9B"/>
</g>
</svg>
