<svg width="70" height="10" viewBox="0 0 70 10" fill="none" xmlns="http://www.w3.org/2000/svg">
<path d="M3.47147 2.7416C3.62197 2.3266 3.62197 2.3266 3.64217 2.3586L3.67217 2.1882L4.18217 0.7822C4.35307 0.312 4.62707 0 5.04207 0C5.46577 0 5.73867 0.323 5.89907 0.8053L6.37137 2.2248L6.63307 3.0111L8.20907 3.0651L8.95607 3.0906C10.0767 3.1283 10.3676 4.0654 9.46487 4.7309L8.86247 5.1749L8.26017 5.6193L7.59497 6.1103L7.66147 6.3413C7.76007 6.6839 7.77907 6.7499 7.81447 6.9099L8.23847 8.3446C8.43047 9.0136 8.24247 9.6181 7.57247 9.6181C7.33187 9.6181 7.08797 9.5156 6.83517 9.3345L4.94517 7.9815L3.02017 9.2825C2.77017 9.4519 2.53117 9.5471 2.29747 9.5471C1.61447 9.5471 1.43077 8.9296 1.64287 8.2571L1.86947 7.5429L2.09577 6.8289L2.34597 6.0397L2.15617 5.8917C1.92717 5.7134 1.84867 5.6523 1.87637 5.6357H1.82737L1.69147 5.53L0.512066 4.61C-0.371934 3.9207 -0.0556337 2.992 1.06507 2.9845L1.81247 2.9792L3.38917 2.9675L3.47147 2.7416Z" fill="#AFAFAF"/>
<path d="M18.4715 2.7416C18.622 2.3266 18.622 2.3266 18.6422 2.3586L18.6722 2.1882L19.1822 0.7822C19.3531 0.312 19.6271 0 20.0421 0C20.4658 0 20.7387 0.323 20.8991 0.8053L21.3714 2.2248L21.6331 3.0111L23.2091 3.0651L23.9561 3.0906C25.0767 3.1283 25.3676 4.0654 24.4649 4.7309L23.8625 5.1749L23.2602 5.6193L22.595 6.1103L22.6615 6.3413C22.7601 6.6839 22.7791 6.7499 22.8145 6.9099L23.2385 8.3446C23.4305 9.0136 23.2425 9.6181 22.5725 9.6181C22.3319 9.6181 22.088 9.5156 21.8352 9.3345L19.9452 7.9815L18.0202 9.2825C17.7702 9.4519 17.5312 9.5471 17.2975 9.5471C16.6145 9.5471 16.4308 8.9296 16.6429 8.2571L16.8695 7.5429L17.0958 6.8289L17.346 6.0397L17.1562 5.8917C16.9272 5.7134 16.8487 5.6523 16.8764 5.6357H16.8274L16.6915 5.53L15.5121 4.61C14.6281 3.9207 14.9444 2.992 16.0651 2.9845L16.8125 2.9792L18.3892 2.9675L18.4712 2.7413L18.4715 2.7416Z" fill="#AFAFAF"/>
<path d="M33.4715 2.7416C33.622 2.3266 33.622 2.3266 33.6422 2.3586L33.6722 2.1882L34.1822 0.7822C34.3531 0.312 34.6271 0 35.0421 0C35.4658 0 35.7387 0.323 35.8991 0.8053L36.3714 2.2248L36.6331 3.0111L38.2091 3.0651L38.9561 3.0906C40.0767 3.1283 40.3676 4.0654 39.4649 4.7309L38.8625 5.1749L38.2602 5.6193L37.595 6.1103L37.6615 6.3413C37.7601 6.6839 37.7791 6.7499 37.8145 6.9099L38.2385 8.3446C38.4305 9.0136 38.2425 9.6181 37.5725 9.6181C37.3319 9.6181 37.088 9.5156 36.8352 9.3345L34.9452 7.9815L33.0202 9.2825C32.7702 9.4519 32.5312 9.5471 32.2975 9.5471C31.6145 9.5471 31.4308 8.9296 31.6429 8.2571L31.8695 7.5429L32.0958 6.8289L32.346 6.0397L32.1562 5.8917C31.9272 5.7134 31.8487 5.6523 31.8764 5.6357H31.8274L31.6915 5.53L30.5121 4.61C29.6281 3.9207 29.9444 2.992 31.0651 2.9845L31.8125 2.9792L33.3892 2.9675L33.4712 2.7413L33.4715 2.7416Z" fill="#AFAFAF"/>
<path d="M48.4715 2.7416C48.622 2.3266 48.622 2.3266 48.6422 2.3586L48.6722 2.1882L49.1822 0.7822C49.3531 0.312 49.6271 0 50.0421 0C50.4658 0 50.7387 0.323 50.8991 0.8053L51.3714 2.2248L51.6331 3.0111L53.2091 3.0651L53.9561 3.0906C55.0767 3.1283 55.3676 4.0654 54.4649 4.7309L53.8625 5.1749L53.2602 5.6193L52.595 6.1103L52.6615 6.3413C52.7601 6.6839 52.7791 6.7499 52.8145 6.9099L53.2385 8.3446C53.4305 9.0136 53.2425 9.6181 52.5725 9.6181C52.3319 9.6181 52.088 9.5156 51.8352 9.3345L49.9452 7.9815L48.0202 9.2825C47.7702 9.4519 47.5312 9.5471 47.2975 9.5471C46.6145 9.5471 46.4308 8.9296 46.6429 8.2571L46.8695 7.5429L47.0958 6.8289L47.346 6.0397L47.1562 5.8917C46.9272 5.7134 46.8487 5.6523 46.8764 5.6357H46.8274L46.6915 5.53L45.5121 4.61C44.6281 3.9207 44.9444 2.992 46.0651 2.9845L46.8125 2.9792L48.3892 2.9675L48.4712 2.7413L48.4715 2.7416Z" fill="#AFAFAF"/>
<path d="M63.4715 2.7416C63.622 2.3266 63.622 2.3266 63.6422 2.3586L63.6722 2.1882L64.1822 0.7822C64.3531 0.312 64.6271 0 65.0421 0C65.4658 0 65.7387 0.323 65.8991 0.8053L66.3714 2.2248L66.6331 3.0111L68.2091 3.0651L68.9561 3.0906C70.0767 3.1283 70.3676 4.0654 69.4649 4.7309L68.8625 5.1749L68.2602 5.6193L67.595 6.1103L67.6615 6.3413C67.7601 6.6839 67.7791 6.7499 67.8145 6.9099L68.2385 8.3446C68.4305 9.0136 68.2425 9.6181 67.5725 9.6181C67.3319 9.6181 67.088 9.5156 66.8352 9.3345L64.9452 7.9815L63.0202 9.2825C62.7702 9.4519 62.5312 9.5471 62.2975 9.5471C61.6145 9.5471 61.4308 8.9296 61.6429 8.2571L61.8695 7.5429L62.0958 6.8289L62.346 6.0397L62.1562 5.8917C61.9272 5.7134 61.8487 5.6523 61.8764 5.6357H61.8274L61.6915 5.53L60.5121 4.61C59.6281 3.9207 59.9444 2.992 61.0651 2.9845L61.8125 2.9792L63.3892 2.9675L63.4712 2.7413L63.4715 2.7416Z" fill="#AFAFAF"/>
</svg>
